<svg width="24" height="24" viewBox="0 0 24 24" fill="none" xmlns="http://www.w3.org/2000/svg">
<path d="M22.5 3.75V20.25C22.5 20.875 22.2812 21.4062 21.8438 21.8438C21.4062 22.2812 20.875 22.5 20.25 22.5H16.2656V14.2031H19.0781L19.5 11.0156H16.2656V9C16.2656 8.5 16.3594 8.125 16.5469 7.875C16.7969 7.59375 17.2188 7.45312 17.8125 7.45312H19.5V4.64062C18.8438 4.54688 18.0312 4.5 17.0625 4.5C15.8125 4.5 14.8125 4.875 14.0625 5.625C13.3438 6.34375 12.9844 7.35938 12.9844 8.67188V11.0156H10.125V14.2031H12.9844V22.5H3.75C3.125 22.5 2.59375 22.2812 2.15625 21.8438C1.71875 21.4062 1.5 20.875 1.5 20.25V3.75C1.5 3.125 1.71875 2.59375 2.15625 2.15625C2.59375 1.71875 3.125 1.5 3.75 1.5H20.25C20.875 1.5 21.4062 1.71875 21.8438 2.15625C22.2812 2.59375 22.5 3.125 22.5 3.75Z" fill="url(#paint0_linear)"/>
<defs>
<linearGradient id="paint0_linear" x1="12" y1="0" x2="12" y2="24" gradientUnits="userSpaceOnUse">
<stop stop-color="#BC9CFF"/>
<stop offset="1" stop-color="#8BA4F9"/>
</linearGradient>
</defs>
</svg>
