<svg width="24" height="24" viewBox="0 0 24 24" fill="none" xmlns="http://www.w3.org/2000/svg">
<path d="M12 6.60938C11.0312 6.60938 10.125 6.85937 9.28125 7.35938C8.46875 7.82812 7.8125 8.48438 7.3125 9.32812C6.84375 10.1406 6.60938 11.0312 6.60938 12C6.60938 12.9688 6.84375 13.875 7.3125 14.7188C7.8125 15.5312 8.46875 16.1875 9.28125 16.6875C10.125 17.1562 11.0312 17.3906 12 17.3906C12.9688 17.3906 13.8594 17.1562 14.6719 16.6875C15.5156 16.1875 16.1719 15.5312 16.6406 14.7188C17.1406 13.875 17.3906 12.9688 17.3906 12C17.3906 11.0312 17.1406 10.1406 16.6406 9.32812C16.1719 8.48438 15.5156 7.82812 14.6719 7.35938C13.8594 6.85937 12.9688 6.60938 12 6.60938ZM12 15.5156C11.0312 15.5156 10.2031 15.1719 9.51562 14.4844C8.82812 13.7969 8.48438 12.9688 8.48438 12C8.48438 11.0312 8.82812 10.2031 9.51562 9.51562C10.2031 8.82812 11.0312 8.48438 12 8.48438C12.9688 8.48438 13.7969 8.82812 14.4844 9.51562C15.1719 10.2031 15.5156 11.0312 15.5156 12C15.5156 12.9688 15.1719 13.7969 14.4844 14.4844C13.7969 15.1719 12.9688 15.5156 12 15.5156ZM18.8906 6.375C18.8594 6.71875 18.7188 7.01563 18.4688 7.26562C18.25 7.51562 17.9688 7.64062 17.625 7.64062C17.2812 7.64062 16.9844 7.51562 16.7344 7.26562C16.4844 7.01563 16.3594 6.71875 16.3594 6.375C16.3594 6.03125 16.4844 5.73437 16.7344 5.48438C16.9844 5.23438 17.2812 5.10938 17.625 5.10938C17.9688 5.10938 18.2656 5.23438 18.5156 5.48438C18.7656 5.73437 18.8906 6.03125 18.8906 6.375ZM22.4531 7.64062C22.3906 6.73438 22.25 5.95312 22.0312 5.29688C21.75 4.51562 21.3125 3.84375 20.7188 3.28125C20.1562 2.6875 19.4844 2.25 18.7031 1.96875C18.0469 1.75 17.2656 1.625 16.3594 1.59375C15.4844 1.53125 14.0312 1.5 12 1.5C9.96875 1.5 8.5 1.53125 7.59375 1.59375C6.71875 1.625 5.95312 1.75 5.29688 1.96875C4.51562 2.25 3.82812 2.6875 3.23438 3.28125C2.67188 3.84375 2.25 4.51562 1.96875 5.29688C1.75 5.95312 1.60938 6.73438 1.54688 7.64062C1.51562 8.51562 1.5 9.96875 1.5 12C1.5 14.0312 1.51562 15.5 1.54688 16.4062C1.60938 17.2812 1.75 18.0469 1.96875 18.7031C2.25 19.4844 2.67188 20.1719 3.23438 20.7656C3.82812 21.3281 4.51562 21.7344 5.29688 21.9844C5.95312 22.2344 6.71875 22.375 7.59375 22.4062C8.5 22.4688 9.96875 22.5 12 22.5C14.0312 22.5 15.4844 22.4688 16.3594 22.4062C17.2656 22.375 18.0469 22.25 18.7031 22.0312C19.4844 21.75 20.1562 21.3281 20.7188 20.7656C21.3125 20.1719 21.75 19.4844 22.0312 18.7031C22.25 18.0469 22.375 17.2812 22.4062 16.4062C22.4688 15.5 22.5 14.0312 22.5 12C22.5 9.96875 22.4844 8.51562 22.4531 7.64062ZM20.2031 18.1875C19.8281 19.125 19.1562 19.7969 18.1875 20.2031C17.6875 20.3906 16.8438 20.5156 15.6562 20.5781C15 20.6094 14.0312 20.625 12.75 20.625H11.25C10 20.625 9.03125 20.6094 8.34375 20.5781C7.1875 20.5156 6.34375 20.3906 5.8125 20.2031C4.875 19.8281 4.20312 19.1562 3.79688 18.1875C3.60938 17.6562 3.48438 16.8125 3.42188 15.6562C3.39062 14.9688 3.375 14 3.375 12.75V11.25C3.375 10 3.39062 9.03125 3.42188 8.34375C3.48438 7.15625 3.60938 6.3125 3.79688 5.8125C4.17188 4.84375 4.84375 4.17188 5.8125 3.79688C6.34375 3.60938 7.1875 3.48437 8.34375 3.42188C9.03125 3.39062 10 3.375 11.25 3.375H12.75C14 3.375 14.9688 3.39062 15.6562 3.42188C16.8438 3.48437 17.6875 3.60938 18.1875 3.79688C19.1562 4.17188 19.8281 4.84375 20.2031 5.8125C20.3906 6.3125 20.5156 7.15625 20.5781 8.34375C20.6094 9 20.625 9.96875 20.625 11.25V12.75C20.625 14 20.6094 14.9688 20.5781 15.6562C20.5156 16.8125 20.3906 17.6562 20.2031 18.1875Z" fill="url(#paint0_linear)"/>
<defs>
<linearGradient id="paint0_linear" x1="12" y1="0" x2="12" y2="24" gradientUnits="userSpaceOnUse">
<stop stop-color="#BC9CFF"/>
<stop offset="1" stop-color="#8BA4F9"/>
</linearGradient>
</defs>
</svg>
